<svg id="Capa_1" enable-background="new 0 0 512 512" height="512" viewBox="0 0 512 512" width="512" xmlns="http://www.w3.org/2000/svg"><g><path d="m206.458 114.475h11.86c10.221 0 18.506-8.287 18.506-18.508v-48.799c0-9.818-10.801-15.803-19.126-10.597l-21.928 13.715c-4.716 2.95-10.166 4.514-15.728 4.514h-142.608c-20.674 0-37.434 16.76-37.434 37.434v110.899c0 32.367 26.239 58.605 58.605 58.605h21.089z" fill="#785252"/><path d="m193 130.11 13.459-15.635h11.86c10.221 0 18.506-8.287 18.506-18.508v-48.799c0-9.818-10.802-15.803-19.126-10.597l-6.686 4.182c1.101 1.837 1.752 4.01 1.752 6.415v48.799c0 10.221-8.285 18.508-18.506 18.508h-11.86l-13.459 15.635z" fill="#664646"/><path d="m206.458 114.475v119.36c0 15.411-12.496 27.904-27.907 27.904h-49.007v70.071h-49.852v-168.204c5.755 2.987 12.377 4.527 19.389 4.177 19.364-.966 35.148-16.794 36.071-36.16.165-3.459-.131-6.829-.839-10.047-.803-3.651 2.006-7.101 5.744-7.101z" fill="#ffcdbe"/><path d="m108.902 261.739h20.642v70.071h-20.642z" fill="#ebae9d"/><path d="m185.816 114.475v119.36c0 15.411-12.496 27.904-27.907 27.904h20.642c15.411 0 27.907-12.493 27.907-27.904v-119.36z" fill="#ebae9d"/><path d="m143.64 15.34h-44.808c-21.972 0-39.783 17.811-39.783 39.783v114.744h37.371v-100.645c0-7.965 6.457-14.422 14.422-14.422h51.496v-20.76c.001-10.328-8.371-18.7-18.698-18.7z" fill="#df646e"/><path d="m95.324 138.724h-35.177c-12.755 0-23.095 10.34-23.095 23.095v40.864c0 12.755 10.34 23.095 23.095 23.095h35.177c12.755 0 23.095-10.34 23.095-23.095v-40.864c-.001-12.755-10.34-23.095-23.095-23.095z" fill="#407194"/><path d="m95.324 138.724h-15.621c12.755 0 23.095 10.34 23.095 23.095v40.865c0 12.755-10.34 23.095-23.095 23.095h15.621c12.755 0 23.095-10.34 23.095-23.095v-40.864c-.001-12.756-10.34-23.096-23.095-23.096z" fill="#365f7e"/><path d="m184.68 496.66h-159.351c-2.802 0-5.074-2.272-5.074-5.074v-132.125c0-15.272 12.38-27.652 27.652-27.652h95.666c25.506 0 46.182 20.676 46.182 46.182v113.595c0 2.802-2.272 5.074-5.075 5.074z" fill="#80b6fc"/><path d="m143.573 331.809h-27.269c25.505 0 46.182 20.676 46.182 46.182v118.67h22.195c2.802 0 5.074-2.272 5.074-5.074v-113.596c0-25.506-20.677-46.182-46.182-46.182z" fill="#62a4fb"/><path d="m20.255 359.461v132.125c0 2.802 2.272 5.074 5.074 5.074h71.053v-137.2c0-15.272-12.38-27.652-27.652-27.652h-20.823c-15.272.001-27.652 12.381-27.652 27.653z" fill="#80b6fc"/><path d="m20.255 444.701v46.885c0 2.802 2.272 5.074 5.074 5.074h71.053v-51.959z" fill="#ffcdbe"/><path d="m74.166 444.701h22.216v51.959h-22.216z" fill="#ebae9d"/><path d="m74.166 444.701v-44.222c0-6.135 4.973-11.108 11.108-11.108s11.108 4.973 11.108 11.108v44.222z" fill="#62a4fb"/><g fill="#365f7e"><path d="m386.016 223.612c-4.204 0-7.611-3.408-7.611-7.611v-101.768c0-4.204 3.407-7.611 7.611-7.611s7.611 3.408 7.611 7.611v101.767c0 4.204-3.407 7.612-7.611 7.612z"/><path d="m504.38 160.156c-1.291 0-2.6-.329-3.799-1.021l-77.712-44.867c-3.64-2.102-4.888-6.757-2.786-10.397 2.101-3.64 6.755-4.888 10.397-2.786l77.712 44.867c3.64 2.102 4.888 6.757 2.786 10.397-1.408 2.442-3.967 3.807-6.598 3.807z"/><path d="m486.036 191.928c-1.291 0-2.601-.329-3.799-1.021l-77.711-44.868c-3.64-2.102-4.888-6.757-2.786-10.397 2.101-3.641 6.758-4.889 10.397-2.786l77.711 44.868c3.64 2.102 4.888 6.757 2.786 10.397-1.408 2.442-3.967 3.807-6.598 3.807z"/></g><path d="m436.533 113.345-18.363 31.806c-4.693 8.128-16.344 8.351-21.345.41l-20.981-33.317c-5.343-8.485 1.008-19.485 11.028-19.1l39.344 1.511c9.378.36 15.01 10.562 10.317 18.69z" fill="#407194"/><path d="m293.244 225.748c-1.405 3.86 8.622 35.659 8.622 35.659l115.255 41.949c3.86 1.405 8.128-.585 9.533-4.445l16.221-44.566c1.405-3.86-.585-8.128-4.445-9.533l-115.247-41.946z" fill="#e27c48"/><path d="m433.113 281.165c-1.332 3.661-5.542 5.49-9.402 4.085l-117.526-42.782c-3.86-1.405-37.791-.594-33.931.811l29.573 18.115 115.294 41.964c3.86 1.405 8.128-.585 9.533-4.445l16.221-44.566z" fill="#dd552d"/><path d="m263.832 189.18-16.221 44.566c-1.405 3.86.585 8.128 4.445 9.533l49.818 18.132 21.308-58.544-49.818-18.132c-3.859-1.405-8.127.585-9.532 4.445z" fill="#407194"/><path d="m308.465 243.304-49.818-18.132c-3.86-1.405-5.908-5.511-4.577-9.172l-6.459 17.746c-.678 1.863-.587 3.895.248 5.687.824 1.767 2.31 3.159 4.197 3.846l49.818 18.132z" fill="#365f7e"/><circle cx="386.016" cy="228.925" fill="#407194" r="21.13"/></g></svg>